<svg width="90" height="124" viewBox="0 0 90 124" fill="none" xmlns="http://www.w3.org/2000/svg">
<circle cx="45" cy="45" r="45" fill="#E9E9E9"/>
<circle cx="45" cy="45" r="26" stroke="#959595" stroke-width="10"/>
<path d="M32.752 115.104H34.192V115.842C34.192 116.598 34.054 117.336 33.778 118.056C33.502 118.764 33.088 119.4 32.536 119.964C31.996 120.516 31.312 120.948 30.484 121.26L29.548 119.874C30.256 119.622 30.844 119.28 31.312 118.848C31.792 118.416 32.152 117.936 32.392 117.408C32.632 116.88 32.752 116.358 32.752 115.842V115.104ZM33.202 115.104H34.57V115.842C34.57 116.37 34.672 116.904 34.876 117.444C35.08 117.984 35.392 118.476 35.812 118.92C36.244 119.364 36.79 119.724 37.45 120L36.676 121.404C35.86 121.08 35.194 120.624 34.678 120.036C34.162 119.46 33.784 118.806 33.544 118.074C33.316 117.342 33.202 116.598 33.202 115.842V115.104ZM38.782 115.104H40.168V115.842C40.168 116.526 40.042 117.234 39.79 117.966C39.55 118.698 39.178 119.37 38.674 119.982C38.17 120.594 37.504 121.068 36.676 121.404L35.902 120C36.562 119.7 37.102 119.316 37.522 118.848C37.954 118.38 38.272 117.882 38.476 117.354C38.68 116.814 38.782 116.31 38.782 115.842V115.104ZM39.196 115.104H40.636V115.842C40.636 116.394 40.756 116.94 40.996 117.48C41.236 118.008 41.59 118.482 42.058 118.902C42.538 119.31 43.132 119.634 43.84 119.874L42.904 121.26C42.076 120.96 41.386 120.54 40.834 120C40.282 119.46 39.868 118.83 39.592 118.11C39.328 117.39 39.196 116.634 39.196 115.842V115.104ZM40.492 105.042H42.382V114.402H40.492V105.042ZM33.508 105.942C34.348 105.942 35.098 106.11 35.758 106.446C36.418 106.77 36.934 107.226 37.306 107.814C37.69 108.39 37.882 109.062 37.882 109.83C37.882 110.598 37.69 111.27 37.306 111.846C36.934 112.422 36.418 112.878 35.758 113.214C35.098 113.538 34.348 113.7 33.508 113.7C32.668 113.7 31.918 113.538 31.258 113.214C30.598 112.878 30.076 112.422 29.692 111.846C29.32 111.27 29.134 110.598 29.134 109.83C29.134 109.062 29.32 108.39 29.692 107.814C30.076 107.226 30.598 106.77 31.258 106.446C31.918 106.11 32.668 105.942 33.508 105.942ZM33.508 107.508C33.028 107.508 32.596 107.604 32.212 107.796C31.828 107.988 31.528 108.258 31.312 108.606C31.096 108.954 30.988 109.362 30.988 109.83C30.988 110.298 31.096 110.706 31.312 111.054C31.528 111.402 31.828 111.672 32.212 111.864C32.596 112.056 33.028 112.152 33.508 112.152C34 112.152 34.432 112.056 34.804 111.864C35.188 111.672 35.488 111.402 35.704 111.054C35.932 110.706 36.046 110.298 36.046 109.83C36.046 109.362 35.932 108.954 35.704 108.606C35.488 108.258 35.188 107.988 34.804 107.796C34.432 107.604 34 107.508 33.508 107.508ZM52.8206 105.366C54.0206 105.366 55.0586 105.492 55.9346 105.744C56.8106 105.996 57.4826 106.356 57.9506 106.824C58.4306 107.292 58.6706 107.862 58.6706 108.534C58.6706 109.182 58.4306 109.746 57.9506 110.226C57.4826 110.694 56.8106 111.054 55.9346 111.306C55.0586 111.546 54.0206 111.666 52.8206 111.666C51.6326 111.666 50.5946 111.546 49.7066 111.306C48.8306 111.054 48.1526 110.694 47.6726 110.226C47.1926 109.746 46.9526 109.182 46.9526 108.534C46.9526 107.862 47.1926 107.292 47.6726 106.824C48.1526 106.356 48.8306 105.996 49.7066 105.744C50.5946 105.492 51.6326 105.366 52.8206 105.366ZM52.8206 106.842C52.0046 106.842 51.3026 106.908 50.7146 107.04C50.1266 107.172 49.6766 107.364 49.3646 107.616C49.0526 107.856 48.8966 108.162 48.8966 108.534C48.8966 108.882 49.0526 109.182 49.3646 109.434C49.6766 109.686 50.1266 109.878 50.7146 110.01C51.3026 110.142 52.0046 110.208 52.8206 110.208C53.6366 110.208 54.3326 110.142 54.9086 110.01C55.4966 109.878 55.9466 109.686 56.2586 109.434C56.5706 109.182 56.7266 108.882 56.7266 108.534C56.7266 108.162 56.5706 107.856 56.2586 107.616C55.9466 107.364 55.4966 107.172 54.9086 107.04C54.3326 106.908 53.6366 106.842 52.8206 106.842ZM47.1686 115.788H58.4546V121.278H47.1686V115.788ZM56.6006 117.282H49.0046V119.784H56.6006V117.282ZM45.3866 112.872H60.2546V114.384H45.3866V112.872Z" fill="#959595"/>
</svg>
