<svg width="90" height="124" viewBox="0 0 90 124" fill="none" xmlns="http://www.w3.org/2000/svg">
<circle cx="45" cy="45" r="45" fill="#FFCBCB"/>
<path d="M21.44 72L37.19 45.81L22.43 21.6H36.65L41.69 30.51C42.41 31.95 43.13 33.39 43.85 34.83C44.63 36.27 45.41 37.68 46.19 39.06H46.55C47.15 37.68 47.75 36.27 48.35 34.83C49.01 33.39 49.67 31.95 50.33 30.51L54.47 21.6H68.15L53.39 47.25L69.14 72H54.92L49.34 62.73C48.56 61.23 47.75 59.76 46.91 58.32C46.13 56.82 45.32 55.38 44.48 54H44.03C43.31 55.38 42.59 56.82 41.87 58.32C41.21 59.76 40.52 61.23 39.8 62.73L35.21 72H21.44Z" fill="#FF1111"/>
<path d="M31.664 114.672H33.428V116.526H35.768V114.672H37.496V121.278H31.664V114.672ZM33.428 117.912V119.838H35.768V117.912H33.428ZM40.412 114.564H41.852V115.86C41.852 116.628 41.732 117.378 41.492 118.11C41.252 118.842 40.88 119.496 40.376 120.072C39.872 120.648 39.23 121.098 38.45 121.422L37.514 120.018C38.174 119.742 38.714 119.382 39.134 118.938C39.566 118.494 39.884 118.008 40.088 117.48C40.304 116.94 40.412 116.4 40.412 115.86V114.564ZM40.826 114.564H42.266V115.86C42.266 116.436 42.368 117 42.572 117.552C42.788 118.092 43.106 118.578 43.526 119.01C43.958 119.43 44.504 119.766 45.164 120.018L44.228 121.422C43.436 121.11 42.788 120.672 42.284 120.108C41.78 119.556 41.408 118.914 41.168 118.182C40.94 117.45 40.826 116.676 40.826 115.86V114.564ZM38.108 108.75H42.392V110.28H38.108V108.75ZM34.328 105.708C35.156 105.708 35.894 105.87 36.542 106.194C37.19 106.518 37.694 106.968 38.054 107.544C38.426 108.12 38.612 108.786 38.612 109.542C38.612 110.286 38.426 110.952 38.054 111.54C37.694 112.116 37.19 112.566 36.542 112.89C35.894 113.214 35.156 113.376 34.328 113.376C33.512 113.376 32.78 113.214 32.132 112.89C31.484 112.566 30.974 112.116 30.602 111.54C30.242 110.952 30.062 110.286 30.062 109.542C30.062 108.786 30.242 108.12 30.602 107.544C30.974 106.968 31.484 106.518 32.132 106.194C32.78 105.87 33.512 105.708 34.328 105.708ZM34.328 107.274C33.86 107.274 33.434 107.37 33.05 107.562C32.678 107.742 32.384 108.006 32.168 108.354C31.964 108.69 31.862 109.086 31.862 109.542C31.862 109.986 31.964 110.382 32.168 110.73C32.384 111.066 32.678 111.33 33.05 111.522C33.434 111.714 33.86 111.81 34.328 111.81C34.808 111.81 35.234 111.714 35.606 111.522C35.978 111.33 36.272 111.066 36.488 110.73C36.704 110.382 36.812 109.986 36.812 109.542C36.812 109.086 36.704 108.69 36.488 108.354C36.272 108.006 35.978 107.742 35.606 107.562C35.234 107.37 34.808 107.274 34.328 107.274ZM41.564 105.042H43.454V113.754H41.564V105.042ZM53.8206 105.366C55.0206 105.366 56.0586 105.492 56.9346 105.744C57.8106 105.996 58.4826 106.356 58.9506 106.824C59.4306 107.292 59.6706 107.862 59.6706 108.534C59.6706 109.182 59.4306 109.746 58.9506 110.226C58.4826 110.694 57.8106 111.054 56.9346 111.306C56.0586 111.546 55.0206 111.666 53.8206 111.666C52.6326 111.666 51.5946 111.546 50.7066 111.306C49.8306 111.054 49.1526 110.694 48.6726 110.226C48.1926 109.746 47.9526 109.182 47.9526 108.534C47.9526 107.862 48.1926 107.292 48.6726 106.824C49.1526 106.356 49.8306 105.996 50.7066 105.744C51.5946 105.492 52.6326 105.366 53.8206 105.366ZM53.8206 106.842C53.0046 106.842 52.3026 106.908 51.7146 107.04C51.1266 107.172 50.6766 107.364 50.3646 107.616C50.0526 107.856 49.8966 108.162 49.8966 108.534C49.8966 108.882 50.0526 109.182 50.3646 109.434C50.6766 109.686 51.1266 109.878 51.7146 110.01C52.3026 110.142 53.0046 110.208 53.8206 110.208C54.6366 110.208 55.3326 110.142 55.9086 110.01C56.4966 109.878 56.9466 109.686 57.2586 109.434C57.5706 109.182 57.7266 108.882 57.7266 108.534C57.7266 108.162 57.5706 107.856 57.2586 107.616C56.9466 107.364 56.4966 107.172 55.9086 107.04C55.3326 106.908 54.6366 106.842 53.8206 106.842ZM48.1686 115.788H59.4546V121.278H48.1686V115.788ZM57.6006 117.282H50.0046V119.784H57.6006V117.282ZM46.3866 112.872H61.2546V114.384H46.3866V112.872Z" fill="black"/>
</svg>
